<svg width="114" height="17" viewBox="0 0 114 17" fill="none" xmlns="http://www.w3.org/2000/svg">
<g clip-path="url(#clip0_906_3513)">
<path d="M9.54337 1.30762L11.452 6.86535H17.6986L12.6667 10.298L14.5753 15.8557L9.54337 12.423L4.51141 15.8557L6.42009 10.298L1.38812 6.86535H7.6347L9.54337 1.30762Z" fill="#F1C40F" stroke="#F39C12" stroke-miterlimit="5.7344"/>
</g>
<g clip-path="url(#clip1_906_3513)">
<path d="M33.0411 1.30762L34.8493 6.86535H40.7671L36 10.298L37.8082 15.8557L33.0411 12.423L28.274 15.8557L30.0822 10.298L25.3151 6.86535H31.2329L33.0411 1.30762Z" fill="#F1C40F" stroke="#F39C12" stroke-miterlimit="5.7344"/>
</g>
<g clip-path="url(#clip2_906_3513)">
<path d="M57.0411 1.30762L58.8493 6.86535H64.7671L60 10.298L61.8082 15.8557L57.0411 12.423L52.274 15.8557L54.0822 10.298L49.3151 6.86535H55.2329L57.0411 1.30762Z" fill="#F1C40F" stroke="#F39C12" stroke-miterlimit="5.7344"/>
</g>
<g clip-path="url(#clip3_906_3513)">
<path d="M81.0411 1.30762L82.8493 6.86535H88.7671L84 10.298L85.8082 15.8557L81.0411 12.423L76.274 15.8557L78.0822 10.298L73.3151 6.86535H79.2329L81.0411 1.30762Z" fill="#F1C40F" stroke="#F39C12" stroke-miterlimit="5.7344"/>
</g>
<g clip-path="url(#clip4_906_3513)">
<path d="M104.543 1.30762L106.452 6.86535H112.699L107.667 10.298L109.575 15.8557L104.543 12.423L99.5114 15.8557L101.42 10.298L96.3881 6.86535H102.635L104.543 1.30762Z" fill="#F1C40F" stroke="#F39C12" stroke-miterlimit="5.7344"/>
</g>
<defs>
<clipPath id="clip0_906_3513">
<rect width="19" height="17" fill="white"/>
</clipPath>
<clipPath id="clip1_906_3513">
<rect width="18" height="17" fill="white" transform="translate(24)"/>
</clipPath>
<clipPath id="clip2_906_3513">
<rect width="18" height="17" fill="white" transform="translate(48)"/>
</clipPath>
<clipPath id="clip3_906_3513">
<rect width="18" height="17" fill="white" transform="translate(72)"/>
</clipPath>
<clipPath id="clip4_906_3513">
<rect width="19" height="17" fill="white" transform="translate(95)"/>
</clipPath>
</defs>
</svg>
