<svg width="209" height="24" viewBox="0 0 209 24" fill="none" xmlns="http://www.w3.org/2000/svg">
<path d="M137.62 0.640625H146.468C148.544 0.640625 150.175 1.13344 151.263 2.16835C152.351 3.15397 152.894 4.63241 152.894 6.5051C152.894 7.63857 152.697 8.6242 152.252 9.36342C151.856 10.1026 151.214 10.7433 150.373 11.2854C151.214 11.4332 151.955 11.6796 152.548 12.0246C153.141 12.3696 153.636 12.7638 153.982 13.2566C154.377 13.7495 154.624 14.2915 154.773 14.8829C154.921 15.4743 155.02 16.115 155.02 16.8049C155.02 17.8891 154.822 18.8254 154.476 19.6632C154.081 20.501 153.586 21.1909 152.894 21.733C152.202 22.2751 151.411 22.7187 150.423 23.0143C149.434 23.31 148.347 23.4579 147.16 23.4579H137.62V0.640625ZM143.502 9.56054H144.59C146.468 9.56054 147.358 8.82132 147.358 7.34288C147.358 5.86444 146.419 5.12522 144.59 5.12522H143.502V9.56054ZM143.502 18.7761H144.787C146.27 18.7761 147.358 18.579 148 18.1848C148.643 17.7905 148.989 17.1991 148.989 16.3614C148.989 15.5236 148.643 14.8829 148 14.538C147.358 14.1437 146.27 13.9466 144.787 13.9466H143.502V18.7761Z" fill="#00B3B3"/>
<path d="M171.53 5.61804H164.461V9.4127H171.135V14.4394H164.461V18.3819H171.53V23.4086H158.53V0.640625H171.53V5.61804Z" fill="#00B3B3"/>
<path d="M188.288 6.45578C187.645 5.91369 187.003 5.56872 186.36 5.27303C185.717 5.02662 185.075 4.87878 184.482 4.87878C183.691 4.87878 183.097 5.0759 182.603 5.42087C182.109 5.76584 181.911 6.30794 181.911 6.89931C181.911 7.29356 182.01 7.63853 182.257 7.88494C182.504 8.13135 182.801 8.37775 183.196 8.57488C183.592 8.772 184.037 8.91985 184.531 9.06769C185.025 9.21554 185.52 9.36338 186.014 9.51122C187.942 10.1519 189.375 11.0389 190.265 12.0739C191.155 13.158 191.6 14.5379 191.6 16.2628C191.6 17.4455 191.402 18.4804 191.007 19.4168C190.611 20.3531 190.018 21.1909 189.276 21.8316C188.535 22.5215 187.596 23.0143 186.508 23.4086C185.421 23.8028 184.185 23.9506 182.751 23.9506C179.884 23.9506 177.215 23.1129 174.743 21.388L177.264 16.6077C178.154 17.3962 179.044 17.9876 179.884 18.3326C180.774 18.7268 181.614 18.924 182.455 18.924C183.443 18.924 184.136 18.7268 184.63 18.2833C185.124 17.8398 185.322 17.347 185.322 16.7556C185.322 16.4106 185.272 16.1149 185.124 15.8685C185.025 15.6221 184.778 15.3757 184.531 15.1786C184.234 14.9814 183.888 14.7843 183.443 14.5872C182.999 14.3901 182.455 14.1929 181.812 13.9958C181.021 13.7494 180.28 13.503 179.538 13.2073C178.797 12.9116 178.154 12.5174 177.561 12.0246C176.968 11.5318 176.523 10.9404 176.177 10.2012C175.831 9.46194 175.633 8.5256 175.633 7.39213C175.633 6.25866 175.831 5.22375 176.177 4.33669C176.572 3.40034 177.067 2.66112 177.759 1.97118C178.451 1.33053 179.242 0.788431 180.23 0.443462C181.219 0.0984925 182.307 -0.0986328 183.493 -0.0986328C184.63 -0.0986328 185.816 0.0492111 187.052 0.344899C188.288 0.640587 189.474 1.1334 190.611 1.72478L188.288 6.45578Z" fill="#00B3B3"/>
<path d="M204.106 5.61804V23.3593H198.174V5.61804H193.281V0.640625H208.951V5.66732H204.106V5.61804Z" fill="#00B3B3"/>
<path d="M144.59 9.56055H0V13.848H144.59V9.56055Z" fill="#00B3B3"/>
<path d="M5.93188 10.0041L13.149 0.640625H20.465L11.4189 11.384L21.3053 23.3593H13.6433L5.93188 13.503V23.3593H0V0.640625H5.93188V10.0041Z" fill="#231F20"/>
<path d="M37.9641 19.4168H29.4617L28.0776 23.3593H21.7997L30.4503 0.640625H36.926L45.6261 23.4086H39.2987L37.9641 19.4168ZM36.3822 14.9322L33.7129 7.34288L31.0435 14.9322H36.3822Z" fill="#231F20"/>
<path d="M56.254 18.3819H65.7945V23.4086H46.2687L57.0944 5.66732H48.0977V0.640625H66.9808L56.254 18.3819Z" fill="#231F20"/>
<path d="M75.7798 0.640625V23.4086H69.8479V0.640625H75.7798Z" fill="#231F20"/>
<path d="M80.5253 23.3593V0.640625H86.4572L97.4312 14.538V0.640625H103.314V23.4086H97.4312L86.4572 9.51126V23.4086H80.5253V23.3593Z" fill="#231F20"/>
<path d="M107.367 12.0246C107.367 10.3491 107.664 8.77207 108.306 7.29363C108.949 5.8152 109.789 4.58316 110.926 3.49897C112.014 2.41478 113.348 1.577 114.881 0.936345C116.413 0.344969 118.143 0 119.972 0C121.801 0 123.482 0.295688 125.064 0.936345C126.596 1.52772 127.931 2.41478 129.068 3.49897C130.205 4.58316 131.045 5.86448 131.688 7.29363C132.33 8.77207 132.627 10.3491 132.627 12.0246C132.627 13.7002 132.33 15.2772 131.688 16.7556C131.045 18.2341 130.205 19.4661 129.068 20.5503C127.931 21.6345 126.596 22.4723 125.064 23.1129C123.531 23.7536 121.801 24.0493 119.972 24.0493C118.094 24.0493 116.413 23.7536 114.881 23.1129C113.348 22.5216 112.014 21.6345 110.926 20.5503C109.839 19.4661 108.949 18.1848 108.306 16.7556C107.664 15.2772 107.367 13.7002 107.367 12.0246ZM113.546 12.0246C113.546 12.9117 113.694 13.7495 114.04 14.538C114.386 15.3265 114.831 15.9671 115.425 16.5092C116.018 17.0513 116.71 17.4949 117.451 17.8398C118.242 18.1355 119.033 18.2834 119.923 18.2834C120.813 18.2834 121.604 18.1355 122.395 17.8398C123.185 17.5441 123.877 17.1006 124.471 16.5092C125.064 15.9671 125.558 15.2772 125.855 14.538C126.201 13.7495 126.349 12.961 126.349 12.0246C126.349 11.1376 126.201 10.2998 125.855 9.51129C125.509 8.77207 125.064 8.08214 124.471 7.54004C123.877 6.99795 123.185 6.55442 122.395 6.20945C121.604 5.91376 120.813 5.76591 119.923 5.76591C119.033 5.76591 118.242 5.91376 117.451 6.20945C116.66 6.50513 116.018 6.94867 115.425 7.54004C114.831 8.08214 114.386 8.77207 114.04 9.51129C113.744 10.2505 113.546 11.0883 113.546 12.0246Z" fill="#231F20"/>
</svg>
