<svg width="110" height="29" viewBox="0 0 110 29" fill="none" xmlns="http://www.w3.org/2000/svg">
<path d="M14.7978 0.973633C7.1359 0.973633 0.925629 7.17111 0.925629 14.816C0.925629 22.4602 7.1359 28.6587 14.7978 28.6587C22.4597 28.6587 28.6712 22.4602 28.6712 14.816C28.6712 7.17111 22.46 0.973633 14.7978 0.973633ZM14.7978 25.5822C8.8392 25.5822 4.00776 20.761 4.00776 14.816C4.00776 8.8699 8.8392 4.04991 14.7978 4.04991C20.7574 4.04991 25.5881 8.8699 25.5881 14.816C25.5881 20.7612 20.7574 25.5822 14.7978 25.5822Z" fill="#383939"/>
<path d="M14.7978 7.12598C10.542 7.12598 7.09064 10.5687 7.09064 14.8163C7.09064 19.0629 10.5418 22.5062 14.7978 22.5062C19.0548 22.5062 22.5057 19.0629 22.5057 14.8163C22.5057 10.569 19.0548 7.12598 14.7978 7.12598ZM14.7978 19.4299C12.2446 19.4299 10.174 17.3639 10.174 14.8163C10.174 12.2675 12.2446 10.2025 14.7978 10.2025C17.352 10.2025 19.4219 12.2675 19.4219 14.8163C19.4221 17.3639 17.3523 19.4299 14.7978 19.4299Z" fill="#383939"/>
<path d="M19.4224 14.816C19.4224 17.3645 17.3516 19.4298 14.7981 19.4298C12.2439 19.4298 10.1743 17.3645 10.1743 14.816C10.1743 12.2679 12.2439 10.2021 14.7981 10.2021C17.3516 10.2021 19.4224 12.2679 19.4224 14.816Z" fill="#C62829"/>
<path fill-rule="evenodd" clip-rule="evenodd" d="M48.4283 9.26215C46.8318 7.68511 44.8926 6.8999 42.6119 6.8999C40.3391 6.8999 38.4009 7.68511 36.8017 9.26215C35.2024 10.8382 34.4014 12.7486 34.4014 14.994C34.4014 17.2372 35.2024 19.1476 36.8017 20.7239C38.4009 22.3017 40.3391 23.0896 42.6119 23.0896C44.8926 23.0896 46.8318 22.3017 48.4283 20.7239C50.0249 19.1476 50.8229 17.2372 50.8229 14.994C50.8229 12.7486 50.0249 10.8382 48.4283 9.26215ZM46.3651 18.8393C45.3398 19.8916 44.0899 20.4183 42.6119 20.4183C41.1357 20.4183 39.8845 19.8916 38.8592 18.8393C37.8356 17.7868 37.3219 16.507 37.3219 14.9938C37.3219 13.4788 37.8356 12.1966 38.8592 11.1463C39.8845 10.0969 41.1357 9.57315 42.6119 9.57315C44.0899 9.57315 45.3398 10.0967 46.3651 11.1463C47.3907 12.1966 47.9031 13.4788 47.9031 14.9938C47.9034 16.507 47.391 17.7868 46.3651 18.8393Z" fill="#383939"/>
<path fill-rule="evenodd" clip-rule="evenodd" d="M60.6105 8.41028C59.5837 7.60372 58.1353 7.20068 56.2676 7.20068H53.5508H52.0999V22.7897H53.5609H55.0177V16.8416H56.2807C58.2219 16.8416 59.6834 16.42 60.6703 15.5778C61.657 14.7371 62.1498 13.4873 62.1498 11.8304C62.1495 10.3585 61.6376 9.21881 60.6105 8.41028ZM58.4912 13.6304C57.9983 13.9875 57.261 14.1674 56.2782 14.1674H55.0177V9.87319H56.2782C57.261 9.87319 57.9983 10.0538 58.4912 10.4147C58.9842 10.7755 59.2312 11.3113 59.2312 12.0253C59.2312 12.7401 58.9842 13.2742 58.4912 13.6304Z" fill="#383939"/>
<path fill-rule="evenodd" clip-rule="evenodd" d="M65.5131 9.8732H62.5913V8.54333V7.19971H71.3531V8.5313V9.8732H68.4314V22.7895H66.9731H65.5131V9.8732Z" fill="#383939"/>
<path fill-rule="evenodd" clip-rule="evenodd" d="M73.2999 7.2002H74.7617H76.2202V22.79H74.7617H73.2999V7.2002Z" fill="#383939"/>
<path fill-rule="evenodd" clip-rule="evenodd" d="M81.7377 20.1153H83.2681C84.2246 20.1153 84.9392 19.9432 85.4189 19.5954C85.8969 19.2505 86.1379 18.7371 86.1379 18.0503C86.1379 17.3588 85.8811 16.8397 85.368 16.4919C84.8524 16.146 84.0816 15.9725 83.0509 15.9725H81.7377V20.1153ZM81.7377 13.3007H82.7761C83.5943 13.3007 84.2056 13.1571 84.6155 12.8724C85.0243 12.5896 85.2305 12.1603 85.2305 11.5936C85.2305 11.0249 85.0243 10.5939 84.6155 10.3059C84.2056 10.0195 83.5946 9.87344 82.7761 9.87344H81.7377V13.3007ZM78.817 7.19971H80.2745H82.7717C84.4076 7.19971 85.7126 7.56887 86.6878 8.30548C87.6622 9.04209 88.1473 10.0308 88.1473 11.2674C88.1473 12.4517 87.6604 13.3999 86.6858 14.1093L86.3965 14.3034C86.7771 14.4674 87.1274 14.6669 87.4435 14.8981C88.5207 15.6846 89.0597 16.7425 89.0597 18.0709C89.0597 19.5066 88.534 20.6516 87.4794 21.507C86.4275 22.3612 85.0226 22.7898 83.2627 22.7898H80.2738H78.817V7.19971ZM90.947 22.7895V7.19971H99.4084V8.53154V9.8732H93.8715V13.7524H99.1418V15.0837V16.4234H93.8715V20.1153H99.4084V21.4476V22.7895H90.947ZM103.737 9.8732H100.818V8.54357V7.19971H109.581V8.53154V9.8732H106.659V22.7895H105.2H103.737V9.8732Z" fill="#383939"/>
</svg>
