<svg width="112" height="25" viewBox="0 0 112 25" fill="none" xmlns="http://www.w3.org/2000/svg">
<g clip-path="url(#clip0_926_1450)">
<path d="M19.4337 12.5016V24.9995H22.4815H25.5293V15.2149V5.42711L27.7539 5.43673C30.2331 5.44944 30.1009 5.43674 30.6036 5.68265C31.1188 5.93166 31.4866 6.30189 31.7377 6.81914C31.9358 7.23094 31.9859 7.44492 31.9859 7.9206C31.9859 8.38358 31.9389 8.60063 31.7533 8.9901C31.5082 9.51353 31.1438 9.8872 30.6347 10.1424C30.129 10.3945 30.1635 10.3914 28.4729 10.4041C27.6464 10.4106 26.974 10.4264 26.9805 10.4426C26.9869 10.4553 27.5839 11.5567 28.3097 12.8849L29.6294 15.2983L30.3676 15.2856C31.7093 15.2602 32.6048 15.0493 33.7139 14.497C35.9227 13.4021 37.456 11.2569 37.8333 8.73493C37.9151 8.20189 37.9151 7.09734 37.8333 6.56396C37.3715 3.477 35.1844 1.00275 32.2404 0.243034C31.3199 0.00673866 31.8067 0.0228672 25.2869 0.0132504L19.4333 0.000537872V12.5016H19.4337Z" fill="#08080E"/>
<path d="M40.0454 0.025456C40.0454 0.041255 40.7996 1.40134 41.7201 3.05197L43.3948 6.05273H50.6654H57.9393L57.9488 3.0997C57.9519 1.47482 57.9488 0.114742 57.9393 0.073184L57.9238 0.00311804H48.9846C44.0675 0.00311804 40.0454 0.0127482 40.0454 0.025456Z" fill="#FFC609"/>
<path d="M60.7738 0.0256271C60.7613 0.0352421 60.7518 5.66031 60.7518 12.5239V24.9995L65.6879 24.993L70.6274 24.9834L72.1952 22.1104C73.0593 20.5301 73.7725 19.2182 73.782 19.1958C73.7945 19.167 73.1316 19.1574 70.5267 19.1574H67.2558V9.58015V0.00295258H64.0258C62.2473 0.0032959 60.7833 0.0129185 60.7738 0.0256271Z" fill="#08080E"/>
<path d="M73.6657 0.025456C73.6657 0.041255 74.4199 1.40134 75.3404 3.05197L77.015 6.05273H84.2856H91.5596L91.5691 3.0997C91.5721 1.47482 91.5691 0.114742 91.5596 0.073184L91.5441 0.00311804H82.6049C77.6874 0.00311804 73.6657 0.0127482 73.6657 0.025456Z" fill="#D62027"/>
<path d="M94.0577 3.03583V6.06855H97.0741H100.09V15.5338V24.999H103.123H106.155V15.5338V6.06855H109.077C111.144 6.06855 111.999 6.05891 111.999 6.0335C111.999 6.01427 111.389 4.8905 110.642 3.53695C109.894 2.18031 109.156 0.836348 108.995 0.545786L108.706 0.0189323L101.382 0.00930595L94.0581 0.00279999V3.03583H94.0577Z" fill="#08080E"/>
<path d="M8.26377 0.0671616C6.90011 0.201109 5.90728 0.424692 5.00234 0.801462C3.75801 1.3187 3.03223 1.78166 2.24358 2.551C1.10607 3.66516 0.361364 5.02525 0.075719 6.51584C0.0128432 6.83834 0.00337807 6.98501 0.000335693 7.71313C0.000335693 8.68373 0.0287312 8.88808 0.270431 9.69245C0.386717 10.0788 0.477651 10.3086 0.647348 10.6342C1.07463 11.4609 1.43296 11.8984 2.29395 12.6485C3.27731 13.5041 4.60954 14.2096 6.9285 15.1036C7.57889 15.3526 8.43989 15.7259 8.85128 15.9368C9.38539 16.2081 9.72783 16.4444 10.0233 16.7477C10.3532 17.086 10.4255 17.2615 10.4255 17.7148C10.4255 17.9893 10.4161 18.0531 10.3407 18.2194C10.2937 18.3214 10.2244 18.4557 10.1869 18.513C10.0956 18.6504 9.81605 18.8706 9.5774 18.9918C9.3793 19.0938 8.98041 19.2216 8.85466 19.2216C8.8168 19.2216 8.77928 19.2343 8.76677 19.2504C8.75731 19.2697 9.22549 20.1348 9.80693 21.1755C10.3884 22.2161 11.0922 23.4739 11.3653 23.9688C11.6418 24.4668 11.8869 24.8721 11.9089 24.8721C12.0062 24.8721 12.996 24.4537 13.4798 24.2082C13.7752 24.0581 14.482 23.5793 14.8339 23.2888C15.387 22.8354 15.9275 22.2034 16.3169 21.565C16.5776 21.1339 16.9328 20.3169 17.0647 19.8443C17.5643 18.047 17.4825 16.0934 16.848 14.5928C16.5181 13.8108 16.226 13.3382 15.7514 12.8179C14.4726 11.407 13.2347 10.628 10.4005 9.44687C9.36984 9.01893 8.7164 8.73491 8.4933 8.6202C7.99367 8.36467 7.67017 8.0837 7.51602 7.77424C7.41562 7.56989 7.37472 7.1708 7.43117 6.92524C7.65732 5.93884 9.02098 5.5078 10.5888 5.92922C10.9657 6.02813 11.1983 6.12396 11.632 6.35716C12.1158 6.61578 12.4771 6.88401 12.8196 7.24464L13.1055 7.54141L14.2177 6.27405C14.8306 5.57821 15.6912 4.60454 16.1249 4.10962L16.92 3.21251L16.8007 3.10398C16.5306 2.85497 15.8423 2.3154 15.5219 2.09834C13.973 1.05458 12.1911 0.384171 10.3059 0.128641C9.77177 0.0544548 8.7066 0.0256042 8.26377 0.0671616Z" fill="#08080E"/>
<path d="M40.014 12.4213V15.103H46.6595H53.3051V12.4213V9.73965H46.6595H40.014V12.4213Z" fill="#08080E"/>
<path d="M73.6343 12.4213V15.103H80.2798H86.9254V12.4213V9.73965H80.2798H73.6343V12.4213Z" fill="#08080E"/>
<path d="M41.7171 22.0561C40.7966 23.6521 40.0454 24.9676 40.0454 24.9772C40.0454 24.9899 44.0766 24.9995 49.0002 24.9995H57.9549V22.0784V19.1574H50.6714H43.385L41.7171 22.0561Z" fill="#08080E"/>
<path d="M75.3373 22.0561C74.4168 23.6521 73.6657 24.9676 73.6657 24.9772C73.6657 24.9899 77.6969 24.9995 82.6204 24.9995H91.5755V22.0784V19.1574H84.2921H77.0056L75.3373 22.0561Z" fill="#08080E"/>
</g>
<defs>
<clipPath id="clip0_926_1450">
<rect width="112" height="25" fill="white"/>
</clipPath>
</defs>
</svg>
